# MagicaVoxel @ Ephtracy

# group
o 

# material
mtllib lilypadv.mtl
usemtl palette

# normals
vn -1 0 0
vn 1 0 0
vn 0 0 1
vn 0 0 -1
vn 0 -1 0
vn 0 1 0

# texcoords
vt 0.888672 0.5
vt 0.896484 0.5

# verts
v 1.2 2 -1.7
v 1.2 2 -2.5
v 1.2 2.2 -1.7
v 1.2 2.2 -2.5
v 1.3 2 -1.5
v 1.3 2 -1.7
v 1.3 2 -2.5
v 1.3 2 -2.7
v 1.3 2.2 -1.5
v 1.3 2.2 -1.7
v 1.3 2.2 -2.5
v 1.3 2.2 -2.7
v 1.4 2 -1.4
v 1.4 2 -1.5
v 1.4 2 -2.7
v 1.4 2 -2.8
v 1.4 2.2 -1.4
v 1.4 2.2 -1.5
v 1.4 2.2 -2.7
v 1.4 2.2 -2.8
v 1.7 2 -1.3
v 1.7 2 -1.4
v 1.7 2 -2.8
v 1.7 2 -2.9
v 1.7 2.2 -1.3
v 1.7 2.2 -1.4
v 1.7 2.2 -2.8
v 1.7 2.2 -2.9
v 2.2 2 -2
v 2.2 2 -2.2
v 2.2 2.2 -2
v 2.2 2.2 -2.2
v 2.4 2 -1.9
v 2.4 2 -2
v 2.4 2 -2.2
v 2.4 2 -2.3
v 2.4 2.2 -1.9
v 2.4 2.2 -2
v 2.4 2.2 -2.2
v 2.4 2.2 -2.3
v 2.6 2 -2.8
v 2.6 2 -2.9
v 2.6 2.2 -2.8
v 2.6 2.2 -2.9
v 2.7 2 -1.3
v 2.7 2 -1.4
v 2.7 2 -1.8
v 2.7 2 -1.9
v 2.7 2 -2.3
v 2.7 2 -2.4
v 2.7 2.2 -1.3
v 2.7 2.2 -1.4
v 2.7 2.2 -1.8
v 2.7 2.2 -1.9
v 2.7 2.2 -2.3
v 2.7 2.2 -2.4
v 2.8 2 -1.4
v 2.8 2 -1.5
v 2.8 2 -1.7
v 2.8 2 -1.8
v 2.8 2 -2.4
v 2.8 2 -2.5
v 2.8 2 -2.7
v 2.8 2 -2.8
v 2.8 2.2 -1.4
v 2.8 2.2 -1.5
v 2.8 2.2 -1.7
v 2.8 2.2 -1.8
v 2.8 2.2 -2.4
v 2.8 2.2 -2.5
v 2.8 2.2 -2.7
v 2.8 2.2 -2.8
v 2.9 2 -1.5
v 2.9 2 -1.7
v 2.9 2 -2.5
v 2.9 2 -2.7
v 2.9 2.2 -1.5
v 2.9 2.2 -1.7
v 2.9 2.2 -2.5
v 2.9 2.2 -2.7
v 1.7 2 -1.3
v 1.7 2.2 -1.3
v 2.7 2 -1.3
v 2.7 2.2 -1.3
v 1.4 2 -1.4
v 1.4 2.2 -1.4
v 1.7 2 -1.4
v 1.7 2.2 -1.4
v 2.7 2 -1.4
v 2.7 2.2 -1.4
v 2.8 2 -1.4
v 2.8 2.2 -1.4
v 1.3 2 -1.5
v 1.3 2.2 -1.5
v 1.4 2 -1.5
v 1.4 2.2 -1.5
v 2.8 2 -1.5
v 2.8 2.2 -1.5
v 2.9 2 -1.5
v 2.9 2.2 -1.5
v 1.2 2 -1.7
v 1.2 2.2 -1.7
v 1.3 2 -1.7
v 1.3 2.2 -1.7
v 2.2 2 -2.2
v 2.2 2.2 -2.2
v 2.4 2 -2.2
v 2.4 2.2 -2.2
v 2.4 2 -2.3
v 2.4 2.2 -2.3
v 2.7 2 -2.3
v 2.7 2.2 -2.3
v 2.7 2 -2.4
v 2.7 2.2 -2.4
v 2.8 2 -2.4
v 2.8 2.2 -2.4
v 2.8 2 -2.5
v 2.8 2.2 -2.5
v 2.9 2 -2.5
v 2.9 2.2 -2.5
v 2.8 2 -1.7
v 2.8 2.2 -1.7
v 2.9 2 -1.7
v 2.9 2.2 -1.7
v 2.7 2 -1.8
v 2.7 2.2 -1.8
v 2.8 2 -1.8
v 2.8 2.2 -1.8
v 2.4 2 -1.9
v 2.4 2.2 -1.9
v 2.7 2 -1.9
v 2.7 2.2 -1.9
v 2.2 2 -2
v 2.2 2.2 -2
v 2.4 2 -2
v 2.4 2.2 -2
v 1.2 2 -2.5
v 1.2 2.2 -2.5
v 1.3 2 -2.5
v 1.3 2.2 -2.5
v 1.3 2 -2.7
v 1.3 2.2 -2.7
v 1.4 2 -2.7
v 1.4 2.2 -2.7
v 2.8 2 -2.7
v 2.8 2.2 -2.7
v 2.9 2 -2.7
v 2.9 2.2 -2.7
v 1.4 2 -2.8
v 1.4 2.2 -2.8
v 1.7 2 -2.8
v 1.7 2.2 -2.8
v 2.6 2 -2.8
v 2.6 2.2 -2.8
v 2.8 2 -2.8
v 2.8 2.2 -2.8
v 1.7 2 -2.9
v 1.7 2.2 -2.9
v 2.6 2 -2.9
v 2.6 2.2 -2.9
v 1.7 2 -1.3
v 2.7 2 -1.3
v 1.4 2 -1.4
v 1.7 2 -1.4
v 2.7 2 -1.4
v 2.8 2 -1.4
v 1.3 2 -1.5
v 1.4 2 -1.5
v 2.1 2 -1.5
v 2.6 2 -1.5
v 2.8 2 -1.5
v 2.9 2 -1.5
v 2.1 2 -1.6
v 2.6 2 -1.6
v 1.2 2 -1.7
v 1.3 2 -1.7
v 1.5 2 -1.7
v 2.1 2 -1.7
v 2.8 2 -1.7
v 2.9 2 -1.7
v 2.7 2 -1.8
v 2.8 2 -1.8
v 1.5 2 -1.9
v 2.1 2 -1.9
v 2.4 2 -1.9
v 2.7 2 -1.9
v 2.2 2 -2
v 2.4 2 -2
v 1.3 2 -2.2
v 2 2 -2.2
v 2.2 2 -2.2
v 2.4 2 -2.2
v 2.4 2 -2.3
v 2.7 2 -2.3
v 1.3 2 -2.4
v 2 2 -2.4
v 2.7 2 -2.4
v 2.8 2 -2.4
v 1.2 2 -2.5
v 1.3 2 -2.5
v 2.1 2 -2.5
v 2.4 2 -2.5
v 2.8 2 -2.5
v 2.9 2 -2.5
v 1.7 2 -2.6
v 2 2 -2.6
v 1.3 2 -2.7
v 1.4 2 -2.7
v 1.7 2 -2.7
v 2 2 -2.7
v 2.1 2 -2.7
v 2.4 2 -2.7
v 2.8 2 -2.7
v 2.9 2 -2.7
v 1.4 2 -2.8
v 1.7 2 -2.8
v 2.6 2 -2.8
v 2.8 2 -2.8
v 1.7 2 -2.9
v 2.6 2 -2.9
v 1.7 2.2 -1.3
v 2.7 2.2 -1.3
v 1.4 2.2 -1.4
v 1.7 2.2 -1.4
v 2.2 2.2 -1.4
v 2.3 2.2 -1.4
v 2.7 2.2 -1.4
v 2.8 2.2 -1.4
v 1.3 2.2 -1.5
v 1.4 2.2 -1.5
v 1.6 2.2 -1.5
v 1.9 2.2 -1.5
v 2.1 2.2 -1.5
v 2.2 2.2 -1.5
v 2.3 2.2 -1.5
v 2.6 2.2 -1.5
v 2.8 2.2 -1.5
v 2.9 2.2 -1.5
v 1.6 2.2 -1.6
v 1.9 2.2 -1.6
v 2.1 2.2 -1.6
v 2.5 2.2 -1.6
v 2.6 2.2 -1.6
v 2.7 2.2 -1.6
v 1.2 2.2 -1.7
v 1.3 2.2 -1.7
v 1.5 2.2 -1.7
v 2.1 2.2 -1.7
v 2.5 2.2 -1.7
v 2.7 2.2 -1.7
v 2.8 2.2 -1.7
v 2.9 2.2 -1.7
v 2.7 2.2 -1.8
v 2.8 2.2 -1.8
v 1.5 2.2 -1.9
v 1.8 2.2 -1.9
v 1.9 2.2 -1.9
v 2.1 2.2 -1.9
v 2.4 2.2 -1.9
v 2.7 2.2 -1.9
v 1.4 2.2 -2
v 1.5 2.2 -2
v 1.8 2.2 -2
v 1.9 2.2 -2
v 2.2 2.2 -2
v 2.4 2.2 -2
v 1.3 2.2 -2.2
v 1.4 2.2 -2.2
v 1.5 2.2 -2.2
v 2 2.2 -2.2
v 2.2 2.2 -2.2
v 2.4 2.2 -2.2
v 2.4 2.2 -2.3
v 2.7 2.2 -2.3
v 1.3 2.2 -2.4
v 2 2.2 -2.4
v 2.1 2.2 -2.4
v 2.2 2.2 -2.4
v 2.7 2.2 -2.4
v 2.8 2.2 -2.4
v 1.2 2.2 -2.5
v 1.3 2.2 -2.5
v 1.7 2.2 -2.5
v 1.8 2.2 -2.5
v 2.2 2.2 -2.5
v 2.4 2.2 -2.5
v 2.6 2.2 -2.5
v 2.7 2.2 -2.5
v 2.8 2.2 -2.5
v 2.9 2.2 -2.5
v 1.5 2.2 -2.6
v 1.7 2.2 -2.6
v 1.8 2.2 -2.6
v 2 2.2 -2.6
v 1.3 2.2 -2.7
v 1.4 2.2 -2.7
v 1.5 2.2 -2.7
v 2 2.2 -2.7
v 2.1 2.2 -2.7
v 2.4 2.2 -2.7
v 2.6 2.2 -2.7
v 2.7 2.2 -2.7
v 2.8 2.2 -2.7
v 2.9 2.2 -2.7
v 1.4 2.2 -2.8
v 1.7 2.2 -2.8
v 2.6 2.2 -2.8
v 2.8 2.2 -2.8
v 1.7 2.2 -2.9
v 2.6 2.2 -2.9

# faces
f 3/2/1 2/2/1 1/2/1
f 4/2/1 2/2/1 3/2/1
f 9/2/1 6/2/1 5/2/1
f 10/2/1 6/2/1 9/2/1
f 11/2/1 8/2/1 7/2/1
f 12/2/1 8/2/1 11/2/1
f 17/2/1 14/2/1 13/2/1
f 18/2/1 14/2/1 17/2/1
f 19/2/1 16/2/1 15/2/1
f 20/2/1 16/2/1 19/2/1
f 25/2/1 22/2/1 21/2/1
f 26/2/1 22/2/1 25/2/1
f 27/2/1 24/2/1 23/2/1
f 28/2/1 24/2/1 27/2/1
f 29/2/2 30/2/2 31/2/2
f 31/2/2 30/2/2 32/2/2
f 33/2/2 34/2/2 37/2/2
f 37/2/2 34/2/2 38/2/2
f 35/2/2 36/2/2 39/2/2
f 39/2/2 36/2/2 40/2/2
f 41/2/2 42/2/2 43/2/2
f 43/2/2 42/2/2 44/2/2
f 45/2/2 46/2/2 51/2/2
f 51/2/2 46/2/2 52/2/2
f 47/2/2 48/2/2 53/2/2
f 53/2/2 48/2/2 54/2/2
f 49/2/2 50/2/2 55/2/2
f 55/2/2 50/2/2 56/2/2
f 57/2/2 58/2/2 65/2/2
f 65/2/2 58/2/2 66/2/2
f 59/2/2 60/2/2 67/2/2
f 67/2/2 60/2/2 68/2/2
f 61/2/2 62/2/2 69/2/2
f 69/2/2 62/2/2 70/2/2
f 63/2/2 64/2/2 71/2/2
f 71/2/2 64/2/2 72/2/2
f 73/2/2 74/2/2 77/2/2
f 77/2/2 74/2/2 78/2/2
f 75/2/2 76/2/2 79/2/2
f 79/2/2 76/2/2 80/2/2
f 83/2/3 82/2/3 81/2/3
f 84/2/3 82/2/3 83/2/3
f 87/2/3 86/2/3 85/2/3
f 88/2/3 86/2/3 87/2/3
f 91/2/3 90/2/3 89/2/3
f 92/2/3 90/2/3 91/2/3
f 95/2/3 94/2/3 93/2/3
f 96/2/3 94/2/3 95/2/3
f 99/2/3 98/2/3 97/2/3
f 100/2/3 98/2/3 99/2/3
f 103/2/3 102/2/3 101/2/3
f 104/2/3 102/2/3 103/2/3
f 107/2/3 106/2/3 105/2/3
f 108/2/3 106/2/3 107/2/3
f 111/2/3 110/2/3 109/2/3
f 112/2/3 110/2/3 111/2/3
f 115/2/3 114/2/3 113/2/3
f 116/2/3 114/2/3 115/2/3
f 119/2/3 118/2/3 117/2/3
f 120/2/3 118/2/3 119/2/3
f 121/2/4 122/2/4 123/2/4
f 123/2/4 122/2/4 124/2/4
f 125/2/4 126/2/4 127/2/4
f 127/2/4 126/2/4 128/2/4
f 129/2/4 130/2/4 131/2/4
f 131/2/4 130/2/4 132/2/4
f 133/2/4 134/2/4 135/2/4
f 135/2/4 134/2/4 136/2/4
f 137/2/4 138/2/4 139/2/4
f 139/2/4 138/2/4 140/2/4
f 141/2/4 142/2/4 143/2/4
f 143/2/4 142/2/4 144/2/4
f 145/2/4 146/2/4 147/2/4
f 147/2/4 146/2/4 148/2/4
f 149/2/4 150/2/4 151/2/4
f 151/2/4 150/2/4 152/2/4
f 153/2/4 154/2/4 155/2/4
f 155/2/4 154/2/4 156/2/4
f 157/2/4 158/2/4 159/2/4
f 159/2/4 158/2/4 160/2/4
f 164/2/5 162/2/5 161/2/5
f 165/2/5 162/2/5 164/2/5
f 168/2/5 164/2/5 163/2/5
f 168/2/5 166/2/5 165/2/5
f 168/2/5 165/2/5 164/2/5
f 169/2/5 166/2/5 168/2/5
f 170/2/5 166/2/5 169/2/5
f 171/2/5 166/2/5 170/2/5
f 173/2/5 168/2/5 167/2/5
f 173/2/5 169/2/5 168/2/5
f 173/1/5 170/1/5 169/1/5
f 174/2/5 172/2/5 171/2/5
f 174/1/5 170/1/5 173/1/5
f 174/2/5 171/2/5 170/2/5
f 176/2/5 173/2/5 167/2/5
f 176/2/5 174/2/5 173/2/5
f 177/2/5 174/2/5 176/2/5
f 178/2/5 174/2/5 177/2/5
f 179/2/5 172/2/5 174/2/5
f 179/2/5 174/2/5 178/2/5
f 180/2/5 172/2/5 179/2/5
f 181/2/5 179/2/5 178/2/5
f 182/2/5 179/2/5 181/2/5
f 183/1/5 178/1/5 177/1/5
f 183/2/5 176/2/5 175/2/5
f 183/2/5 177/2/5 176/2/5
f 184/2/5 181/2/5 178/2/5
f 184/1/5 178/1/5 183/1/5
f 185/2/5 181/2/5 184/2/5
f 186/2/5 181/2/5 185/2/5
f 187/2/5 184/2/5 183/2/5
f 187/2/5 185/2/5 184/2/5
f 188/2/5 185/2/5 187/2/5
f 189/2/5 183/2/5 175/2/5
f 189/2/5 187/2/5 183/2/5
f 190/2/5 187/2/5 189/2/5
f 191/2/5 187/2/5 190/2/5
f 193/2/5 191/2/5 190/2/5
f 193/2/5 192/2/5 191/2/5
f 195/2/5 189/2/5 175/2/5
f 195/1/5 190/1/5 189/1/5
f 196/2/5 193/2/5 190/2/5
f 196/1/5 190/1/5 195/1/5
f 196/2/5 194/2/5 193/2/5
f 197/2/5 194/2/5 196/2/5
f 199/2/5 195/2/5 175/2/5
f 199/2/5 198/2/5 197/2/5
f 199/2/5 196/2/5 195/2/5
f 199/2/5 197/2/5 196/2/5
f 200/2/5 198/2/5 199/2/5
f 201/2/5 198/2/5 200/2/5
f 202/2/5 198/2/5 201/2/5
f 203/2/5 198/2/5 202/2/5
f 205/2/5 201/2/5 200/2/5
f 206/2/5 201/2/5 205/2/5
f 207/2/5 205/2/5 200/2/5
f 208/2/5 205/2/5 207/2/5
f 209/1/5 206/1/5 205/1/5
f 209/2/5 205/2/5 208/2/5
f 210/2/5 201/2/5 206/2/5
f 210/1/5 206/1/5 209/1/5
f 211/1/5 202/1/5 201/1/5
f 211/2/5 201/2/5 210/2/5
f 212/2/5 203/2/5 202/2/5
f 212/1/5 202/1/5 211/1/5
f 212/2/5 204/2/5 203/2/5
f 213/2/5 204/2/5 212/2/5
f 214/2/5 204/2/5 213/2/5
f 215/2/5 211/2/5 210/2/5
f 215/2/5 210/2/5 209/2/5
f 215/2/5 213/2/5 212/2/5
f 215/2/5 212/2/5 211/2/5
f 215/2/5 209/2/5 208/2/5
f 216/2/5 213/2/5 215/2/5
f 217/2/5 213/2/5 216/2/5
f 218/2/5 213/2/5 217/2/5
f 219/2/5 217/2/5 216/2/5
f 220/2/5 217/2/5 219/2/5
f 221/2/6 222/2/6 224/2/6
f 224/2/6 222/2/6 225/2/6
f 225/2/6 222/2/6 226/2/6
f 226/2/6 222/2/6 227/2/6
f 223/2/6 224/2/6 230/2/6
f 224/2/6 225/2/6 230/2/6
f 230/2/6 225/2/6 231/2/6
f 231/2/6 225/2/6 232/2/6
f 232/2/6 225/2/6 233/2/6
f 225/1/6 226/1/6 234/1/6
f 233/2/6 225/2/6 234/2/6
f 227/2/6 228/2/6 235/2/6
f 234/1/6 226/1/6 235/1/6
f 226/2/6 227/2/6 235/2/6
f 235/2/6 228/2/6 236/2/6
f 236/2/6 228/2/6 237/2/6
f 231/1/6 232/1/6 239/1/6
f 229/2/6 230/2/6 239/2/6
f 230/2/6 231/2/6 239/2/6
f 232/2/6 233/2/6 240/2/6
f 239/1/6 232/1/6 240/1/6
f 233/1/6 234/1/6 241/1/6
f 240/2/6 233/2/6 241/2/6
f 235/1/6 236/1/6 241/1/6
f 234/1/6 235/1/6 241/1/6
f 241/1/6 236/1/6 242/1/6
f 237/2/6 238/2/6 243/2/6
f 242/1/6 236/1/6 243/1/6
f 236/2/6 237/2/6 243/2/6
f 243/2/6 238/2/6 244/2/6
f 239/2/6 240/2/6 246/2/6
f 241/2/6 242/2/6 246/2/6
f 229/2/6 239/2/6 246/2/6
f 240/2/6 241/2/6 246/2/6
f 246/2/6 242/2/6 247/2/6
f 247/2/6 242/2/6 248/2/6
f 243/1/6 244/1/6 249/1/6
f 248/2/6 242/2/6 249/2/6
f 242/1/6 243/1/6 249/1/6
f 244/2/6 238/2/6 250/2/6
f 249/1/6 244/1/6 250/1/6
f 250/2/6 238/2/6 251/2/6
f 251/2/6 238/2/6 252/2/6
f 248/2/6 249/2/6 253/2/6
f 249/2/6 250/2/6 253/2/6
f 250/2/6 251/2/6 253/2/6
f 253/2/6 251/2/6 254/2/6
f 247/1/6 248/1/6 255/1/6
f 246/2/6 247/2/6 255/2/6
f 245/2/6 246/2/6 255/2/6
f 255/1/6 248/1/6 256/1/6
f 256/1/6 248/1/6 257/1/6
f 248/2/6 253/2/6 258/2/6
f 257/1/6 248/1/6 258/1/6
f 258/2/6 253/2/6 259/2/6
f 259/2/6 253/2/6 260/2/6
f 245/2/6 255/2/6 261/2/6
f 255/2/6 256/2/6 261/2/6
f 261/2/6 256/2/6 262/2/6
f 256/1/6 257/1/6 263/1/6
f 262/2/6 256/2/6 263/2/6
f 258/2/6 259/2/6 264/2/6
f 263/1/6 257/1/6 264/1/6
f 257/2/6 258/2/6 264/2/6
f 264/2/6 259/2/6 265/2/6
f 265/2/6 259/2/6 266/2/6
f 245/2/6 261/2/6 267/2/6
f 261/1/6 262/1/6 268/1/6
f 267/2/6 261/2/6 268/2/6
f 262/2/6 263/2/6 269/2/6
f 268/1/6 262/1/6 269/1/6
f 263/2/6 264/2/6 269/2/6
f 264/2/6 265/2/6 269/2/6
f 269/2/6 265/2/6 270/2/6
f 270/2/6 265/2/6 271/2/6
f 270/2/6 271/2/6 273/2/6
f 271/2/6 272/2/6 273/2/6
f 245/2/6 267/2/6 275/2/6
f 267/1/6 268/1/6 275/1/6
f 269/1/6 270/1/6 275/1/6
f 268/1/6 269/1/6 275/1/6
f 273/2/6 274/2/6 276/2/6
f 275/1/6 270/1/6 276/1/6
f 270/2/6 273/2/6 276/2/6
f 276/2/6 274/2/6 277/2/6
f 277/2/6 274/2/6 278/2/6
f 278/2/6 274/2/6 279/2/6
f 245/2/6 275/2/6 281/2/6
f 275/2/6 276/2/6 281/2/6
f 276/2/6 277/2/6 281/2/6
f 281/2/6 277/2/6 282/2/6
f 282/2/6 277/2/6 283/2/6
f 283/2/6 277/2/6 284/2/6
f 279/2/6 280/2/6 285/2/6
f 278/2/6 279/2/6 285/2/6
f 277/1/6 278/1/6 285/1/6
f 285/2/6 280/2/6 286/2/6
f 286/2/6 280/2/6 287/2/6
f 287/2/6 280/2/6 288/2/6
f 288/2/6 280/2/6 289/2/6
f 282/2/6 283/2/6 291/2/6
f 283/1/6 284/1/6 292/1/6
f 291/2/6 283/2/6 292/2/6
f 284/2/6 277/2/6 293/2/6
f 292/1/6 284/1/6 293/1/6
f 293/2/6 277/2/6 294/2/6
f 282/2/6 291/2/6 295/2/6
f 295/2/6 291/2/6 296/2/6
f 291/1/6 292/1/6 297/1/6
f 296/2/6 291/2/6 297/2/6
f 292/1/6 293/1/6 297/1/6
f 293/1/6 294/1/6 297/1/6
f 294/2/6 277/2/6 298/2/6
f 297/1/6 294/1/6 298/1/6
f 277/1/6 285/1/6 299/1/6
f 298/2/6 277/2/6 299/2/6
f 285/1/6 286/1/6 299/1/6
f 286/2/6 287/2/6 300/2/6
f 299/1/6 286/1/6 300/1/6
f 287/1/6 288/1/6 301/1/6
f 300/2/6 287/2/6 301/2/6
f 288/2/6 289/2/6 302/2/6
f 301/1/6 288/1/6 302/1/6
f 289/2/6 290/2/6 302/2/6
f 302/2/6 290/2/6 303/2/6
f 303/2/6 290/2/6 304/2/6
f 300/2/6 301/2/6 305/2/6
f 302/2/6 303/2/6 305/2/6
f 301/2/6 302/2/6 305/2/6
f 296/2/6 297/2/6 305/2/6
f 297/2/6 298/2/6 305/2/6
f 299/2/6 300/2/6 305/2/6
f 298/2/6 299/2/6 305/2/6
f 305/2/6 303/2/6 306/2/6
f 306/2/6 303/2/6 307/2/6
f 307/2/6 303/2/6 308/2/6
f 306/2/6 307/2/6 309/2/6
f 309/2/6 307/2/6 310/2/6
