# MagicaVoxel @ Ephtracy

# group
o 

# material
mtllib rr_crossing.mtl
usemtl palette

# normals
vn -1 0 0
vn 1 0 0
vn 0 0 1
vn 0 0 -1
vn 0 -1 0
vn 0 1 0

# texcoords
vt 0.841797 0.5
vt 0.958984 0.5
vt 0.994141 0.5

# verts
v 0.2 2 -0.5
v 0.2 2 -0.8
v 0.2 2.3 -0.5
v 0.2 2.3 -0.8
v 0.2 2.6 -0.5
v 0.2 2.6 -0.8
v 0.2 2.9 -0.5
v 0.2 2.9 -0.8
v 0.2 3.2 -0.5
v 0.2 3.2 -0.8
v 0.2 3.5 -0.5
v 0.2 3.5 -0.8
v 0.2 3.8 -0.5
v 0.2 3.8 -0.8
v 0.2 4.1 -0.5
v 0.2 4.1 -0.8
v 0.2 4.4 -0.5
v 0.2 4.4 -0.8
v 0.2 4.7 -0.5
v 0.2 4.7 -0.8
v 0.2 5 -0.5
v 0.2 5 -0.8
v 0.2 5.3 -0.5
v 0.2 5.3 -0.8
v 0.2 5.5 -0.5
v 0.2 5.5 -0.8
v 0.5 4.7 0
v 0.5 4.7 -0.5
v 0.5 4.7 -0.8
v 0.5 4.7 -1.3
v 0.5 4.8 -0.1
v 0.5 4.8 -0.5
v 0.5 4.8 -0.8
v 0.5 4.8 -1.2
v 0.5 5 -0.5
v 0.5 5 -0.8
v 0.5 5.1 -0.1
v 0.5 5.1 -0.5
v 0.5 5.1 -0.8
v 0.5 5.1 -1.2
v 0.5 5.2 0
v 0.5 5.2 -0.5
v 0.5 5.2 -0.8
v 0.5 5.2 -1.3
v 0.5 2 -0.5
v 0.5 2 -0.8
v 0.5 2.3 -0.5
v 0.5 2.3 -0.8
v 0.5 2.6 -0.5
v 0.5 2.6 -0.8
v 0.5 2.9 -0.5
v 0.5 2.9 -0.8
v 0.5 3.2 -0.5
v 0.5 3.2 -0.8
v 0.5 3.5 -0.5
v 0.5 3.5 -0.8
v 0.5 3.8 -0.5
v 0.5 3.8 -0.8
v 0.5 4.1 -0.5
v 0.5 4.1 -0.8
v 0.5 4.4 -0.5
v 0.5 4.4 -0.8
v 0.5 4.7 -0.5
v 0.5 4.7 -0.8
v 0.5 5.2 -0.5
v 0.5 5.2 -0.8
v 0.5 5.3 -0.5
v 0.5 5.3 -0.8
v 0.5 5.5 -0.5
v 0.5 5.5 -0.8
v 0.6 4.8 -0.1
v 0.6 4.8 -0.5
v 0.6 4.8 -0.8
v 0.6 4.8 -1.2
v 0.6 5.1 -0.1
v 0.6 5.1 -0.5
v 0.6 5.1 -0.8
v 0.6 5.1 -1.2
v 0.7 4.7 0
v 0.7 4.7 -1.3
v 0.7 4.8 -0.1
v 0.7 4.8 -0.5
v 0.7 4.8 -0.8
v 0.7 4.8 -1.2
v 0.7 5.1 -0.1
v 0.7 5.1 -0.5
v 0.7 5.1 -0.8
v 0.7 5.1 -1.2
v 0.7 5.2 0
v 0.7 5.2 -1.3
v 0.5 4.7 0
v 0.5 5.2 0
v 0.7 4.7 0
v 0.7 5.2 0
v 0.2 2 -0.5
v 0.2 2.3 -0.5
v 0.2 2.6 -0.5
v 0.2 2.9 -0.5
v 0.2 3.2 -0.5
v 0.2 3.5 -0.5
v 0.2 3.8 -0.5
v 0.2 4.1 -0.5
v 0.2 4.4 -0.5
v 0.2 4.7 -0.5
v 0.2 5 -0.5
v 0.2 5.3 -0.5
v 0.2 5.5 -0.5
v 0.5 2 -0.5
v 0.5 2.3 -0.5
v 0.5 2.6 -0.5
v 0.5 2.9 -0.5
v 0.5 3.2 -0.5
v 0.5 3.5 -0.5
v 0.5 3.8 -0.5
v 0.5 4.1 -0.5
v 0.5 4.4 -0.5
v 0.5 4.7 -0.5
v 0.5 4.8 -0.5
v 0.5 5 -0.5
v 0.5 5.1 -0.5
v 0.5 5.2 -0.5
v 0.5 5.3 -0.5
v 0.5 5.5 -0.5
v 0.6 4.8 -0.5
v 0.6 5.1 -0.5
v 0.7 4.8 -0.5
v 0.7 5.1 -0.5
v 0.6 4.8 -1.2
v 0.6 5.1 -1.2
v 0.7 4.8 -1.2
v 0.7 5.1 -1.2
v 0.6 4.8 -0.1
v 0.6 5.1 -0.1
v 0.7 4.8 -0.1
v 0.7 5.1 -0.1
v 0.2 2 -0.8
v 0.2 2.3 -0.8
v 0.2 2.6 -0.8
v 0.2 2.9 -0.8
v 0.2 3.2 -0.8
v 0.2 3.5 -0.8
v 0.2 3.8 -0.8
v 0.2 4.1 -0.8
v 0.2 4.4 -0.8
v 0.2 4.7 -0.8
v 0.2 5 -0.8
v 0.2 5.3 -0.8
v 0.2 5.5 -0.8
v 0.5 2 -0.8
v 0.5 2.3 -0.8
v 0.5 2.6 -0.8
v 0.5 2.9 -0.8
v 0.5 3.2 -0.8
v 0.5 3.5 -0.8
v 0.5 3.8 -0.8
v 0.5 4.1 -0.8
v 0.5 4.4 -0.8
v 0.5 4.7 -0.8
v 0.5 4.8 -0.8
v 0.5 5 -0.8
v 0.5 5.1 -0.8
v 0.5 5.2 -0.8
v 0.5 5.3 -0.8
v 0.5 5.5 -0.8
v 0.6 4.8 -0.8
v 0.6 5.1 -0.8
v 0.7 4.8 -0.8
v 0.7 5.1 -0.8
v 0.5 4.7 -1.3
v 0.5 5.2 -1.3
v 0.7 4.7 -1.3
v 0.7 5.2 -1.3
v 0.2 2 -0.5
v 0.5 2 -0.5
v 0.2 2 -0.8
v 0.5 2 -0.8
v 0.5 4.7 0
v 0.7 4.7 0
v 0.5 4.7 -0.5
v 0.5 4.7 -0.8
v 0.5 4.7 -1.3
v 0.7 4.7 -1.3
v 0.6 5.1 -0.1
v 0.7 5.1 -0.1
v 0.6 5.1 -0.5
v 0.7 5.1 -0.5
v 0.6 5.1 -0.8
v 0.7 5.1 -0.8
v 0.6 5.1 -1.2
v 0.7 5.1 -1.2
v 0.6 4.8 -0.1
v 0.7 4.8 -0.1
v 0.6 4.8 -0.5
v 0.7 4.8 -0.5
v 0.6 4.8 -0.8
v 0.7 4.8 -0.8
v 0.6 4.8 -1.2
v 0.7 4.8 -1.2
v 0.5 5.2 0
v 0.7 5.2 0
v 0.5 5.2 -0.5
v 0.5 5.2 -0.8
v 0.5 5.2 -1.3
v 0.7 5.2 -1.3
v 0.2 5.5 -0.5
v 0.5 5.5 -0.5
v 0.2 5.5 -0.8
v 0.5 5.5 -0.8

# faces
f 3/1/1 2/1/1 1/1/1
f 4/1/1 2/1/1 3/1/1
f 5/2/1 4/2/1 3/2/1
f 6/2/1 4/2/1 5/2/1
f 7/1/1 6/1/1 5/1/1
f 8/1/1 6/1/1 7/1/1
f 9/2/1 8/2/1 7/2/1
f 10/2/1 8/2/1 9/2/1
f 11/1/1 10/1/1 9/1/1
f 12/1/1 10/1/1 11/1/1
f 13/2/1 12/2/1 11/2/1
f 14/2/1 12/2/1 13/2/1
f 15/1/1 14/1/1 13/1/1
f 16/1/1 14/1/1 15/1/1
f 17/2/1 16/2/1 15/2/1
f 18/2/1 16/2/1 17/2/1
f 19/1/1 18/1/1 17/1/1
f 20/1/1 18/1/1 19/1/1
f 21/2/1 20/2/1 19/2/1
f 22/2/1 20/2/1 21/2/1
f 23/1/1 22/1/1 21/1/1
f 24/1/1 22/1/1 23/1/1
f 25/2/1 24/2/1 23/2/1
f 26/2/1 24/2/1 25/2/1
f 31/3/1 28/3/1 27/3/1
f 32/3/1 28/3/1 31/3/1
f 33/3/1 30/3/1 29/3/1
f 34/3/1 30/3/1 33/3/1
f 35/1/1 32/1/1 31/1/1
f 36/1/1 34/1/1 33/1/1
f 37/3/1 31/3/1 27/3/1
f 37/1/1 35/1/1 31/1/1
f 38/1/1 35/1/1 37/1/1
f 39/1/1 34/1/1 36/1/1
f 40/3/1 30/3/1 34/3/1
f 40/1/1 34/1/1 39/1/1
f 41/3/1 38/3/1 37/3/1
f 41/3/1 37/3/1 27/3/1
f 42/3/1 38/3/1 41/3/1
f 43/3/1 40/3/1 39/3/1
f 44/3/1 30/3/1 40/3/1
f 44/3/1 40/3/1 43/3/1
f 45/1/2 46/1/2 47/1/2
f 47/1/2 46/1/2 48/1/2
f 47/2/2 48/2/2 49/2/2
f 49/2/2 48/2/2 50/2/2
f 49/1/2 50/1/2 51/1/2
f 51/1/2 50/1/2 52/1/2
f 51/2/2 52/2/2 53/2/2
f 53/2/2 52/2/2 54/2/2
f 53/1/2 54/1/2 55/1/2
f 55/1/2 54/1/2 56/1/2
f 55/2/2 56/2/2 57/2/2
f 57/2/2 56/2/2 58/2/2
f 57/1/2 58/1/2 59/1/2
f 59/1/2 58/1/2 60/1/2
f 59/2/2 60/2/2 61/2/2
f 61/2/2 60/2/2 62/2/2
f 61/1/2 62/1/2 63/1/2
f 63/1/2 62/1/2 64/1/2
f 65/1/2 66/1/2 67/1/2
f 67/1/2 66/1/2 68/1/2
f 67/2/2 68/2/2 69/2/2
f 69/2/2 68/2/2 70/2/2
f 71/1/2 72/1/2 75/1/2
f 75/1/2 72/1/2 76/1/2
f 73/1/2 74/1/2 77/1/2
f 77/1/2 74/1/2 78/1/2
f 79/3/2 80/3/2 81/3/2
f 81/3/2 80/3/2 82/3/2
f 82/3/2 80/3/2 83/3/2
f 83/3/2 80/3/2 84/3/2
f 79/3/2 81/3/2 85/3/2
f 82/3/2 83/3/2 86/3/2
f 86/3/2 83/3/2 87/3/2
f 84/3/2 80/3/2 88/3/2
f 86/3/2 87/3/2 89/3/2
f 87/3/2 88/3/2 89/3/2
f 79/3/2 85/3/2 89/3/2
f 85/3/2 86/3/2 89/3/2
f 88/3/2 80/3/2 90/3/2
f 89/3/2 88/3/2 90/3/2
f 93/3/3 92/3/3 91/3/3
f 94/3/3 92/3/3 93/3/3
f 108/1/3 96/1/3 95/1/3
f 109/2/3 97/2/3 96/2/3
f 109/1/3 96/1/3 108/1/3
f 110/1/3 98/1/3 97/1/3
f 110/2/3 97/2/3 109/2/3
f 111/2/3 99/2/3 98/2/3
f 111/1/3 98/1/3 110/1/3
f 112/1/3 100/1/3 99/1/3
f 112/2/3 99/2/3 111/2/3
f 113/2/3 101/2/3 100/2/3
f 113/1/3 100/1/3 112/1/3
f 114/1/3 102/1/3 101/1/3
f 114/2/3 101/2/3 113/2/3
f 115/2/3 103/2/3 102/2/3
f 115/1/3 102/1/3 114/1/3
f 116/1/3 104/1/3 103/1/3
f 116/2/3 103/2/3 115/2/3
f 117/2/3 105/2/3 104/2/3
f 117/1/3 104/1/3 116/1/3
f 118/2/3 105/2/3 117/2/3
f 119/1/3 106/1/3 105/1/3
f 119/2/3 105/2/3 118/2/3
f 120/1/3 106/1/3 119/1/3
f 121/1/3 106/1/3 120/1/3
f 122/2/3 107/2/3 106/2/3
f 122/1/3 106/1/3 121/1/3
f 123/2/3 107/2/3 122/2/3
f 126/3/3 125/3/3 124/3/3
f 127/3/3 125/3/3 126/3/3
f 130/3/3 129/3/3 128/3/3
f 131/3/3 129/3/3 130/3/3
f 132/3/4 133/3/4 134/3/4
f 134/3/4 133/3/4 135/3/4
f 136/1/4 137/1/4 149/1/4
f 137/2/4 138/2/4 150/2/4
f 149/1/4 137/1/4 150/1/4
f 138/1/4 139/1/4 151/1/4
f 150/2/4 138/2/4 151/2/4
f 139/2/4 140/2/4 152/2/4
f 151/1/4 139/1/4 152/1/4
f 140/1/4 141/1/4 153/1/4
f 152/2/4 140/2/4 153/2/4
f 141/2/4 142/2/4 154/2/4
f 153/1/4 141/1/4 154/1/4
f 142/1/4 143/1/4 155/1/4
f 154/2/4 142/2/4 155/2/4
f 143/2/4 144/2/4 156/2/4
f 155/1/4 143/1/4 156/1/4
f 144/1/4 145/1/4 157/1/4
f 156/2/4 144/2/4 157/2/4
f 145/2/4 146/2/4 158/2/4
f 157/1/4 145/1/4 158/1/4
f 158/2/4 146/2/4 159/2/4
f 146/1/4 147/1/4 160/1/4
f 159/2/4 146/2/4 160/2/4
f 160/1/4 147/1/4 161/1/4
f 161/1/4 147/1/4 162/1/4
f 147/2/4 148/2/4 163/2/4
f 162/1/4 147/1/4 163/1/4
f 163/2/4 148/2/4 164/2/4
f 165/3/4 166/3/4 167/3/4
f 167/3/4 166/3/4 168/3/4
f 169/3/4 170/3/4 171/3/4
f 171/3/4 170/3/4 172/3/4
f 175/1/5 174/1/5 173/1/5
f 176/1/5 174/1/5 175/1/5
f 179/3/5 178/3/5 177/3/5
f 180/3/5 178/3/5 179/3/5
f 181/3/5 178/3/5 180/3/5
f 182/3/5 178/3/5 181/3/5
f 185/3/5 184/3/5 183/3/5
f 186/3/5 184/3/5 185/3/5
f 189/3/5 188/3/5 187/3/5
f 190/3/5 188/3/5 189/3/5
f 191/3/6 192/3/6 193/3/6
f 193/3/6 192/3/6 194/3/6
f 195/3/6 196/3/6 197/3/6
f 197/3/6 196/3/6 198/3/6
f 199/3/6 200/3/6 201/3/6
f 201/3/6 200/3/6 202/3/6
f 202/3/6 200/3/6 203/3/6
f 203/3/6 200/3/6 204/3/6
f 205/2/6 206/2/6 207/2/6
f 207/2/6 206/2/6 208/2/6
